<?xml version="1.0" standalone="no"?>
<!DOCTYPE svg PUBLIC "-//W3C//DTD SVG 20010904//EN"
 "http://www.w3.org/TR/2001/REC-SVG-20010904/DTD/svg10.dtd">
<svg version="1.0" xmlns="http://www.w3.org/2000/svg"
 width="177.000000pt" height="177.000000pt" viewBox="0 0 177.000000 177.000000"
 preserveAspectRatio="xMidYMid meet">
<metadata>
Created by potrace 1.14, written by Peter Selinger 2001-2017
</metadata>
<g transform="translate(0.000000,177.000000) scale(0.100000,-0.100000)"
fill="#000000" stroke="none">
<path d="M773 1762 c-15 -2 -23 -11 -25 -30 -2 -22 -9 -28 -35 -30 -35 -3 -49
-20 -57 -67 -6 -34 -7 -35 -42 -38 -27 -2 -29 -6 -34 -47 -5 -42 -7 -45 -37
-48 -18 -2 -41 2 -53 8 -21 11 -21 11 -1 36 29 37 2 87 -42 78 -24 -4 -57 -42
-57 -63 0 -21 -43 -85 -87 -132 -20 -21 -33 -45 -32 -55 3 -19 -17 -91 -31
-109 -6 -9 -17 -41 -25 -80 -2 -5 -8 -29 -14 -53 -7 -23 -9 -47 -6 -52 3 -5 2
-11 -3 -14 -4 -2 -7 -44 -6 -93 1 -95 32 -241 64 -303 11 -21 16 -40 13 -44
-4 -3 -1 -6 5 -6 7 0 12 -8 12 -19 0 -10 7 -24 16 -32 23 -19 46 -68 38 -81
-4 -6 -3 -8 3 -5 6 4 13 -7 17 -27 4 -19 14 -44 24 -55 22 -26 67 -34 83 -15
6 7 15 11 19 9 5 -3 5 8 0 25 -7 25 -5 32 12 44 18 13 24 13 49 0 31 -16 46
-37 53 -77 6 -32 -11 -96 -30 -118 -22 -24 -18 -32 33 -70 43 -31 51 -34 72
-23 23 12 60 74 61 102 0 7 4 11 9 8 5 -4 7 4 4 15 -9 34 19 18 30 -17 5 -16
18 -38 28 -50 23 -25 24 -57 4 -74 -8 -7 -15 -21 -15 -31 0 -11 -6 -19 -14
-19 -26 0 -27 -18 -1 -22 15 -3 23 -1 19 6 -2 6 1 2 8 -8 20 -29 78 -86 78
-77 0 17 66 76 84 76 11 0 21 6 24 13 2 7 0 12 -5 11 -19 -3 -30 2 -30 16 0 8
-8 30 -18 48 -18 33 -18 34 9 60 14 14 26 32 26 40 0 8 6 20 14 26 11 10 17 6
28 -17 8 -16 14 -40 14 -55 -1 -14 0 -24 3 -22 2 3 9 -2 15 -11 14 -18 76 -30
76 -15 0 6 5 11 10 11 6 0 23 11 37 24 l26 24 -18 39 c-44 91 -12 193 61 193
25 0 30 -11 30 -56 -1 -17 4 -31 9 -31 6 0 19 -3 31 -7 30 -9 68 25 83 76 19
64 51 120 64 115 8 -3 12 7 13 28 1 18 14 59 30 91 16 32 30 67 32 79 5 28 10
50 12 50 1 0 3 16 6 35 2 19 7 42 10 50 10 22 11 180 2 180 -4 0 -6 13 -4 30
2 16 0 31 -3 32 -3 2 -15 30 -25 63 -10 33 -27 79 -38 102 -11 24 -18 49 -15
56 3 8 -18 43 -46 78 -55 69 -72 98 -81 141 -8 36 -37 51 -71 38 -40 -15 -44
-38 -13 -83 17 -23 -3 -37 -54 -37 l-38 0 0 45 c0 25 -4 46 -10 46 -5 1 -14 3
-20 4 -5 1 -18 3 -28 4 -14 1 -19 9 -19 31 0 37 -28 70 -60 70 -16 0 -23 6
-23 19 0 35 -27 45 -124 46 -50 0 -101 -1 -113 -3z"/>
<path d="M195 1330 c3 -5 8 -10 11 -10 2 0 4 5 4 10 0 6 -5 10 -11 10 -5 0 -7
-4 -4 -10z"/>
<path d="M170 1269 c0 -5 5 -7 10 -4 6 3 10 8 10 11 0 2 -4 4 -10 4 -5 0 -10
-5 -10 -11z"/>
<path d="M150 1180 c-9 -6 -10 -10 -3 -10 6 0 15 5 18 10 8 12 4 12 -15 0z"/>
<path d="M130 1130 c0 -5 5 -10 11 -10 5 0 7 5 4 10 -3 6 -8 10 -11 10 -2 0
-4 -4 -4 -10z"/>
<path d="M130 831 c0 -6 4 -13 10 -16 6 -3 7 1 4 9 -7 18 -14 21 -14 7z"/>
<path d="M513 325 c0 -8 4 -12 9 -9 5 3 6 10 3 15 -9 13 -12 11 -12 -6z"/>
<path d="M500 290 c-8 -5 -10 -10 -5 -10 6 0 17 5 25 10 8 5 11 10 5 10 -5 0
-17 -5 -25 -10z"/>
</g>
</svg>
